<?xml version="1.0" standalone="no"?>
<!DOCTYPE svg PUBLIC "-//W3C//DTD SVG 20010904//EN"
 "http://www.w3.org/TR/2001/REC-SVG-20010904/DTD/svg10.dtd">
<svg version="1.0" xmlns="http://www.w3.org/2000/svg"
 width="128.000000pt" height="128.000000pt" viewBox="0 0 128.000000 128.000000"
 preserveAspectRatio="xMidYMid meet">
<metadata>
Created by potrace 1.14, written by Peter Selinger 2001-2017
</metadata>
<g transform="translate(0.000000,128.000000) scale(0.100000,-0.100000)"
fill="#000000" stroke="none">
<path d="M682 1080 c-13 -22 -17 -48 -4 -36 4 4 7 11 7 14 0 4 4 13 9 20 4 7
6 15 4 17 -2 2 -9 -5 -16 -15z"/>
<path d="M935 1039 c-4 -6 -5 -12 -2 -15 2 -3 7 2 10 11 7 17 1 20 -8 4z"/>
<path d="M637 1029 c-19 -11 -23 -39 -6 -39 6 0 9 7 6 14 -4 10 -1 13 7 10 8
-3 17 -1 20 5 9 15 -7 21 -27 10z"/>
<path d="M545 997 c-33 -11 -47 -26 -38 -40 3 -5 9 -3 14 4 6 11 11 11 20 2 9
-9 18 -9 39 2 15 8 31 11 35 7 5 -4 5 1 2 11 -4 10 -7 22 -7 25 0 4 -5 0 -10
-8 -7 -10 -12 -12 -17 -4 -6 8 -17 8 -38 1z m25 -17 c0 -5 -4 -10 -10 -10 -5
0 -10 5 -10 10 0 6 5 10 10 10 6 0 10 -4 10 -10z"/>
<path d="M910 1002 c0 -11 -51 -36 -67 -33 -7 1 -13 -2 -13 -8 0 -5 -16 -8
-35 -7 -37 3 -43 -2 -23 -22 15 -15 32 -16 23 -2 -3 6 -2 10 4 10 5 0 12 -6
15 -12 3 -9 8 -8 16 5 6 9 16 17 23 17 7 0 6 -4 -3 -10 -10 -7 -11 -10 -2 -10
11 0 82 65 82 76 0 2 -4 4 -10 4 -5 0 -10 -4 -10 -8z"/>
<path d="M480 964 c0 -8 -4 -13 -8 -10 -5 3 -16 -4 -25 -15 -9 -10 -14 -19
-10 -19 4 0 0 -6 -9 -12 -9 -7 -24 -26 -34 -43 -22 -36 -18 -33 34 27 22 26
43 44 46 41 3 -4 6 -1 6 6 0 7 4 10 9 6 6 -3 9 4 8 15 -2 23 -17 27 -17 4z"/>
<path d="M700 909 c-46 -51 -54 -74 -11 -33 16 15 41 32 56 38 25 10 26 13 11
25 -14 12 -21 8 -56 -30z"/>
<path d="M132 748 c-17 -17 -17 -639 0 -656 9 -9 108 -12 384 -12 205 0 379 3
388 6 12 5 16 20 16 59 l0 52 60 6 c201 18 248 293 65 378 -22 10 -59 19 -82
19 l-43 0 0 68 c0 40 -5 73 -12 80 -17 17 -759 17 -776 0z m901 -256 c26 -23
47 -66 47 -94 0 -60 -81 -127 -136 -114 -23 6 -24 9 -24 115 0 59 3 111 8 115
11 12 85 -3 105 -22z"/>
</g>
</svg>
